<?xml version="1.0" encoding="UTF-8"?>
<svg id="Layer_1" xmlns="http://www.w3.org/2000/svg" xmlns:xlink="http://www.w3.org/1999/xlink" viewBox="0 0 295.81 231.43">
  <defs>
    <linearGradient id="linear-gradient" x1="147.09" y1="148.23" x2="198.33" y2="189.27" gradientTransform="translate(0 286.56) scale(1 -1)" gradientUnits="userSpaceOnUse">
      <stop offset="0" stop-color="#44b65e"/>
      <stop offset="1" stop-color="#75bf43"/>
    </linearGradient>
    <linearGradient id="linear-gradient-2" x1="160.71" y1="233.35" x2="225.78" y2="233.35" gradientTransform="translate(0 286.56) scale(1 -1)" gradientUnits="userSpaceOnUse">
      <stop offset="0" stop-color="#44b65e"/>
      <stop offset="1" stop-color="#75bf43"/>
    </linearGradient>
    <linearGradient id="linear-gradient-3" x1="75.15" y1="263.84" x2="147.5" y2="263.84" gradientTransform="translate(0 286.56) scale(1 -1)" gradientUnits="userSpaceOnUse">
      <stop offset="0" stop-color="#44b65e"/>
      <stop offset="1" stop-color="#75bf43"/>
    </linearGradient>
    <linearGradient id="linear-gradient-4" x1="118.5" y1="189.14" x2="147.43" y2="189.14" gradientTransform="translate(0 286.56) scale(1 -1)" gradientUnits="userSpaceOnUse">
      <stop offset="0" stop-color="#44b65e"/>
      <stop offset="1" stop-color="#75bf43"/>
    </linearGradient>
    <linearGradient id="linear-gradient-5" x1="124.74" y1="79.97" x2="160.53" y2="79.97" gradientTransform="translate(0 286.56) scale(1 -1)" gradientUnits="userSpaceOnUse">
      <stop offset="0" stop-color="#44b65e"/>
      <stop offset="1" stop-color="#75bf43"/>
    </linearGradient>
  </defs>
  <g>
    <path d="M200.26,82.94l-31.9,78.03c-.3.95-1.17,1.58-2.13,1.58h-27.39c-.95,0-1.81-.63-2.12-1.58l-2.1-6.28c.88-.82,1.71-1.71,2.5-2.63,6.78-7.99,10.26-19.59,10.26-34.85v-19.27l5.09,18.59,6.23-22.51,41.56-11.08Z" fill="url(#linear-gradient)"/>
    <path d="M225.77,19.94c-.02.31-.27.98-.66,2.1-.13.4-.28.79-.44,1.17l-21.31,52.13-42.65,11.36,4.59-16.57,1.26-4.56.41-1.28c2.28-2.32,4.61-4.58,7-6.75,3.06-2.82,6.41-5.72,9.97-8.57,4.29-3.4,8.61-6.57,12.86-9.41,2.64-1.75,24.45-17.42,27.09-18.96,1.42-.83,1.92-1.14,1.89-.66h-.01Z" fill="url(#linear-gradient-2)"/>
    <path d="M243.91.21v-.02s0,0-.02-.02c0,0,0-.02-.02-.03h-.01c-.42-.44-1.51.18-2.97,1.41-1.02.86-2.22,2.04-3.49,3.36l-3.86-.28,1.19-1.28-.62-.62-1.7,1.82-4.12-.3,1.17-1.27-.62-.62-1.67,1.8-7.07-.51-1.02,1.1,14.15,4.73c-1.89,2.17-3.67,4.33-5,5.99l-5.09-.37-.75.81-.47.51,1.15.39,4.02,1.34h.03l.02.07,1.81,5.29,1.23-1.32-.5-5.17c1.51-1.45,3.53-3.42,5.58-5.49l4.98,14.56,1.02-1.1-.71-7.33,1.68-1.8-.62-.62-1.18,1.26-.42-4.27,1.7-1.82-.62-.62-1.19,1.29-.39-4.02c2.97-3.28,5.1-6.12,4.37-6.86h.03Z" fill="#232323"/>
    <g>
      <path d="M146.55,82.68c-.05.07-.1.14-.14.2.04-.05.09-.11.15-.19.12-.18.2-.29.23-.35-.06.06-.15.19-.24.34h0Z" fill="#232323"/>
      <path d="M139.23,35.23l-59.38-2.96c-3.09,0-5.59,2.61-5.59,5.83v15.93c0,1.42,1.11,2.56,2.47,2.56h35.1c3.67,0,6.63,3.1,6.63,6.91v34.48l28.92-7.72v-51.27c0-4.54-3.79-3.76-8.14-3.76h-.01ZM146.56,82.68c-.06.08-.11.14-.15.19.04-.06.09-.13.14-.2.09-.14.18-.27.24-.34-.03.05-.11.16-.23.35h0Z" fill="#232323"/>
      <path d="M147.37,97.03v20.17c0,15.26-3.48,26.86-10.26,34.85-.79.92-1.61,1.81-2.5,2.63-7.57,7.21-18.47,10.77-32.51,10.77s-27.53-4.95-36.73-14.16c-2.57-2.57-2.71-6.81-.43-9.67l10.42-13.03c.99-1.24,2.81-1.21,3.8.03,6.35,7.92,13.33,11.95,21.5,11.95,11.68,0,17.79-7.3,17.79-21.7v-14.15l28.92-7.71v.02Z" fill="#232323"/>
    </g>
    <path d="M122.78,5.09l-18.24-.82c-1.58-.07-2.91,1.2-2.98,2.85l-.28,6.65c-.06,1.52.98,2.82,2.39,3.07-.14-.36-.21-.77-.19-1.19l.25-5.95c.06-1.47,1.15-2.62,2.43-2.56l14.78.67c1.28.06,2.27,1.3,2.21,2.77l-.25,5.95c-.02.42-.12.82-.29,1.17,1.42-.12,2.57-1.32,2.63-2.84l.28-6.65c.07-1.64-1.16-3.03-2.74-3.11h0Z" fill="#232323"/>
    <path d="M75.15,23.87l.26-6.34c.09-2.19,1.87-3.88,3.97-3.79l64.55,2.9c2.06.09,3.66,1.91,3.57,4.06l-.35,8.41c-.06,1.5-1.28,2.66-2.72,2.6l-64.95-2.92c-2.5-.11-4.44-2.31-4.33-4.91h0Z" fill="url(#linear-gradient-3)"/>
    <path d="M118.57,98.99c-.02,1.48-.05,2.96-.07,4.44,9.62-2.47,19.25-4.95,28.87-7.42.02-1.53.04-3.07.06-4.6" fill="url(#linear-gradient-4)"/>
    <polygon points="200.75 81.54 159.2 92.69 160.52 87.73 203 76.57 200.75 81.54" fill="#232323"/>
  </g>
  <g>
    <path d="M124.75,185.29h12.89l8.29,17.16,4.17,9.55h-.31l-.55-11.19-.06-15.51h11.35v42.59h-12.71l-8.41-17.1-4.3-9.92h.37l.55,11.5v15.51h-11.29v-42.59h0Z" fill="url(#linear-gradient-5)"/>
    <path d="M5.84,226.22c-1.91-.99-3.36-2.41-4.35-4.26C.49,220.1,0,217.9,0,215.35v-1.28h10.15v1.89c0,1.09.2,1.91.59,2.45s.97.82,1.73.82,1.38-.27,1.78-.82c.39-.54.59-1.36.59-2.45v-22.27c0-1.32,1.07-2.4,2.4-2.4h6.02c1.21,0,2.2.98,2.2,2.2v21.81c0,2.55-.52,4.77-1.57,6.64-1.05,1.87-2.53,3.3-4.46,4.29-1.92.99-4.19,1.48-6.8,1.48s-4.87-.49-6.78-1.48h0Z" fill="#232323"/>
    <path d="M35.76,225.96c-2.1-1.16-3.7-2.8-4.82-4.93-1.12-2.13-1.67-4.64-1.67-7.53s.56-5.36,1.67-7.51c1.12-2.14,2.72-3.79,4.82-4.93,2.09-1.14,4.55-1.71,7.37-1.71s5.27.57,7.37,1.71c2.09,1.14,3.71,2.78,4.84,4.93,1.13,2.15,1.7,4.65,1.7,7.51s-.57,5.41-1.7,7.53c-1.13,2.13-2.75,3.77-4.84,4.93-2.1,1.16-4.55,1.74-7.37,1.74s-5.27-.58-7.37-1.74ZM45.16,219.37c.57-.51.99-1.26,1.26-2.25.27-.99.41-2.2.41-3.63s-.14-2.59-.41-3.57c-.28-.99-.7-1.74-1.26-2.25-.57-.51-1.25-.77-2.04-.77s-1.47.26-2.04.77c-.57.51-1,1.26-1.29,2.25s-.44,2.18-.44,3.57.15,2.64.44,3.63c.29.99.72,1.74,1.29,2.25.57.51,1.24.77,2.04.77s1.47-.26,2.04-.77Z" fill="#232323"/>
    <path d="M72.19,225.91c-1.55-1.23-2.61-2.83-3.19-4.8l1.18-.05v.26c0,.65-.02,1.3-.05,1.97-.03.66-.09,1.32-.15,1.97-.03.38-.06.68-.08.92-.02.24-.04.53-.08.87h-9.64c.24-2.35.36-5.17.36-8.48v-25.16c0-2.3,1.86-4.16,4.16-4.16h1.55c2.37,0,4.29,1.92,4.29,4.29v11.85l-1.19.05c.48-1.84,1.49-3.3,3.01-4.39,1.53-1.09,3.24-1.63,5.13-1.63,2.16,0,4.01.58,5.54,1.74s2.7,2.8,3.5,4.93c.81,2.13,1.21,4.61,1.21,7.43s-.42,5.36-1.26,7.51c-.84,2.14-2.03,3.8-3.56,4.98-1.53,1.17-3.32,1.76-5.38,1.76s-3.81-.61-5.36-1.84v-.02ZM76.03,219.37c.53-.51.94-1.25,1.21-2.22s.41-2.17.41-3.6-.14-2.63-.41-3.6c-.28-.97-.68-1.7-1.21-2.2-.53-.49-1.18-.74-1.93-.74s-1.44.25-1.96.74-.91,1.23-1.19,2.2-.41,2.17-.41,3.6.14,2.67.41,3.63c.27.95.68,1.68,1.21,2.2.53.51,1.18.77,1.93.77s1.4-.26,1.93-.77h.01Z" fill="#232323"/>
    <path d="M93.29,225.28c-2.18-1.62-3.38-3.79-3.58-6.51h7.71c.73,0,1.36.42,1.74,1.04.15.24.34.44.57.62.53.39,1.24.59,2.14.59.82,0,1.48-.16,1.96-.49.48-.32.72-.77.72-1.35,0-.44-.15-.82-.46-1.12-.31-.31-.76-.55-1.34-.74s-1.36-.35-2.32-.49c-2.3-.27-4.18-.75-5.64-1.43s-2.56-1.6-3.3-2.76-1.11-2.59-1.11-4.29c0-2.93,1.05-5.16,3.14-6.69s4.88-2.3,8.35-2.3c3.19,0,5.77.62,7.73,1.86,1.48.94,2.55,2.18,3.23,3.73.38.86-.15,1.72-1.07,1.87l-6.9,1.12c-.1-.68-.38-1.2-.82-1.56-.45-.36-1.03-.54-1.75-.54s-1.36.16-1.8.49c-.45.32-.67.77-.67,1.35,0,.38.14.69.41.94.27.26.65.45,1.13.59.48.14,1.15.26,2.01.36,2.4.31,4.38.77,5.93,1.4,1.55.63,2.73,1.53,3.56,2.71s1.24,2.66,1.24,4.47c0,3.06-1.1,5.42-3.3,7.07s-5.12,2.48-8.76,2.48-6.55-.81-8.73-2.43h-.02Z" fill="#232323"/>
    <path d="M174.14,191.85h3.87c1.9,0,3.56,1.3,4,3.16l2.9,12.06,2.52,12.51h-.93l2.58-12.51,2.86-11.72c.5-2.05,2.34-3.5,4.46-3.5h4.02c1.68,0,2.88,1.61,2.41,3.22l-9.61,32.53h-12.47l-9.41-31.99c-.55-1.88.86-3.76,2.81-3.76h0Z" fill="#232323"/>
    <path d="M208.24,190.42h6.73c.76,0,1.37.61,1.37,1.37v5.41c0,.35-.28.63-.63.63h-8.8c-.35,0-.63-.28-.63-.63v-4.84c0-1.07.87-1.94,1.94-1.94h.02ZM206.92,200.63h8.8c.35,0,.63.28.63.63v25.71c0,.35-.28.63-.63.63h-8.8c-.35,0-.63-.28-.63-.63v-25.71c0-.35.28-.63.63-.63Z" fill="#232323"/>
    <path d="M223.12,225.84c-2.18-1.62-3.38-3.79-3.58-6.51h6.82c1.13,0,2.12.57,2.9,1.39.09.1.19.19.31.27.53.39,1.24.59,2.14.59.82,0,1.48-.16,1.96-.49.48-.32.72-.77.72-1.35,0-.44-.15-.82-.46-1.12-.31-.31-.76-.55-1.34-.74s-1.36-.35-2.32-.49c-2.3-.27-4.18-.75-5.64-1.43-1.46-.68-2.56-1.6-3.3-2.76s-1.11-2.59-1.11-4.29c0-2.93,1.05-5.16,3.14-6.69,2.09-1.53,4.88-2.3,8.35-2.3,3.19,0,5.77.62,7.73,1.86,1.04.66,1.87,1.47,2.52,2.42.88,1.31.04,3.11-1.52,3.36l-5.74.93c-.1-.68-.38-1.2-.82-1.56-.45-.36-1.03-.54-1.75-.54s-1.36.16-1.8.49c-.45.32-.67.77-.67,1.35,0,.38.14.69.41.94.27.26.65.45,1.13.59.48.14,1.15.26,2.01.36,2.4.31,4.38.77,5.93,1.4s2.73,1.53,3.56,2.71,1.24,2.66,1.24,4.47c0,3.06-1.1,5.42-3.3,7.07-2.2,1.65-5.12,2.48-8.76,2.48s-6.55-.81-8.73-2.43l-.03.02Z" fill="#232323"/>
    <path d="M247.75,225.97c-1.46-1.53-2.19-3.61-2.19-6.23,0-2.86.89-4.96,2.68-6.31,1.79-1.34,4.41-2.15,7.88-2.43,1.3-.1,2.27-.22,2.89-.36.62-.14,1.07-.34,1.37-.61.29-.27.44-.63.44-1.07,0-.61-.2-1.06-.59-1.35-.4-.29-.95-.43-1.67-.43s-1.33.18-1.83.54c-.5.36-.82.86-.95,1.51l-6.02-.76c-1.8-.23-2.83-2.29-1.8-3.78.69-1.01,1.59-1.88,2.7-2.6,2.18-1.43,4.97-2.14,8.37-2.14,2.37,0,4.44.36,6.21,1.07,1.77.71,3.14,1.72,4.12,3.01.98,1.29,1.47,2.83,1.47,4.6v10.88c0,1.4.05,2.84.14,4.31.13,2.06-1.48,3.81-3.55,3.81h-5.71c-.07-.65-.15-1.33-.26-2.04-.07-.65-.13-1.27-.18-1.86s-.08-1.1-.08-1.51v-1.23h1.24c-.41,2.25-1.4,4.03-2.96,5.34s-3.5,1.97-5.8,1.97c-2.47,0-4.44-.77-5.9-2.3l-.02-.03ZM259.42,220.97c.45-.27.79-.66,1.03-1.15s.36-1.08.36-1.76v-2.5c-.24.27-.58.49-1.03.66s-1.07.29-1.85.36c-.86.1-1.49.36-1.88.77-.4.41-.59.97-.59,1.68s.21,1.33.62,1.74,1,.61,1.75.61c.62,0,1.15-.14,1.6-.41h0Z" fill="#232323"/>
    <g isolation="isolate">
      <text transform="translate(0 187.67)" fill="#232323" font-family="ArialMT, Arial" font-size="10.92" isolation="isolate"><tspan x="0" y="0">The</tspan></text>
    </g>
    <g isolation="isolate">
      <text transform="translate(273.97 227.88)" fill="#232323" font-family="ArialMT, Arial" font-size="10.92" isolation="isolate"><tspan x="0" y="0">ANZ</tspan></text>
    </g>
  </g>
</svg>